. 
  
http://www.torrenting.com/        :     Greatest Movie Tracker on The Net!!!
 
http://www.Torrenting.com          :     Once & For all ;)


               www . Torrenting . Com 

(((((((((((((= Enjoy No RAR releases =))))))))))))))))))))


...................................NFO:....................................

.[img]http://img402.imageshack.us/img402/8944/yogiy.jpg[/img]

[color=blue][size=5][b]Yogi Bear 2010 BDRip XVID AC3 HQ Hive-CM8[/b][/size][/color]



[b]Thx Hive

CM8 Doing It Right The First Time :D

Source Bluray

Video: 720x400 @bitrate 2200 2pass
Audio: DTS to AC3 5.1 @448
Sample: yes included
Subs: yes english in srt /subs[/b]


[url]http://www.imdb.com/title/tt1302067/[/url]


General
Complete name                    : Yogi.Bear.2010.BDRip.XVID.AC3.HQ.Hive-CM8.avi
Format                           : AVI
Format/Info                      : Audio Video Interleave
File size                        : 1.49 GiB
Duration                         : 1h 20mn
Overall bit rate                 : 2 658 Kbps
Writing application              : Nandub v1.0rc2
Writing library                  : Nandub build 1853/release

Video
ID                               : 0
Format                           : MPEG-4 Visual
Format profile                   : Advanced Simple@L5
Format settings, BVOP            : Yes
Format settings, QPel            : Yes
Format settings, GMC             : No warppoints
Format settings, Matrix          : Default (H.263)
Muxing mode                      : Packed bitstream
Codec ID                         : XVID
Codec ID/Hint                    : XviD
Duration                         : 1h 20mn
Bit rate                         : 2 200 Kbps
Width                            : 720 pixels
Height                           : 400 pixels
Display aspect ratio             : 16:9
Frame rate                       : 23.976 fps
Color space                      : YUV
Chroma subsampling               : 4:2:0
Bit depth                        : 8 bits
Scan type                        : Progressive
Bits/(Pixel*Frame)               : 0.319
Stream size                      : 1.24 GiB (83%)
Writing library                  : XviD 1.2.1 (UTC 2008-12-04)

Audio
ID                               : 1
Format                           : AC-3
Format/Info                      : Audio Coding 3
Mode extension                   : CM (complete main)
Codec ID                         : 2000
Duration                         : 1h 20mn
Bit rate mode                    : Constant
Bit rate                         : 448 Kbps
Channel(s)                       : 6 channels
Channel positions                : Front: L C R, Side: L R, LFE
Sampling rate                    : 48.0 KHz
Bit depth                        : 16 bits
Video delay                      : 100ms
Stream size                      : 258 MiB (17%)
Alignment                        : Split accross interleaves
Interleave, duration             : 42 ms (1.00 video frame)
Interleave, preload duration     : 500 ms



Dan Aykroyd ... Yogi Bear (voice)
Justin Timberlake ... Boo Boo (voice)
Anna Faris ... Rachel
Tom Cavanagh ... Ranger Smith
T.J. Miller ... Ranger Jones
Nathan Corddry ... Chief of Staff
Andrew Daly ... Mayor Brown
Josh Robert Thompson ... Narrator (voice)
David Stott ... Mayor's Tailor
Greg Johnson ... Dirty Shopper
Christy Quillam ... Stylist



A documentary filmmaker travels to Jellystone Park to shoot a project and soon 
crosses paths with Yogi Bear, his sidekick Boo-Boo, and Ranger Smith.
Jellystone Park is celebrating its 100 anniversary, however it may be for the last time, 
because attendance is down and Mayor Brown wants to close the park and sell the land. 
If the park is closed, Yogi Bear and Boo Boo will lose their home. They join forces with 
Ranger Smith to save Jellystone from closing forever. Yogi must really prove in this endeavor 
that he is "smarter than the average bear".




[img]http://img26.imageshack.us/img26/5703/37897808.png[/img]
[img]http://img219.imageshack.us/img219/5615/yoyog.png[/img]
[img]http://img856.imageshack.us/img856/126/yoyoyo.png[/img]
[img]http://img846.imageshack.us/img846/852/yoyoyoyo.png[/img]
[img]http://img215.imageshack.us/img215/1904/yoyoyoyoyo.png[/img]
[img]http://img689.imageshack.us/img689/7792/yoyoyoyoyoyo.png[/img]
[img]http://img819.imageshack.us/img819/6001/yoyoyoyoyoyoyo.png[/img]
[img]http://img43.imageshack.us/img43/7920/yoyoyoyoyoyoyoyo.png[/img]
[img]http://img534.imageshack.us/img534/6789/yoyoyoyoyoyoyoyoyo.png[/img]






Greetz

iNK,LUSi,,MAGNET,CLASSiFiED,THC,LEGi0N,T0XiC,IMAGiNE,ViSiON,WBZ,FLAWL3SS,NOVA
Vik,Rapeseed,D2U,SAFC,goldadvance,MEMORY100,KaN1vE,Unevano,Pinnz,Wayne,Mr Hive
and all P2P groups 
Great Work Guys :D


CM8@hushmail.com